# xmcd CD database file
#
# Track frame offsets:
#	150
#	36552
#	77288
#	110218
#	201920
#	249004
#	270714
#
# Disc length: 4594 seconds
#
# Revision: 0
# Processed by: cddbd v1.5.1PL2 Copyright (c) Steve Scherf et al.
# Submitted via: CDex 1.51
#
DISCID=5a11f007
DTITLE=Jason Ricci - Live at Checkers Tavern
DYEAR=2005
DGENRE=Blues
TTITLE0=Wake County Stomp
TTITLE1=Blues Penitentiary
TTITLE2=Wish You Would
TTITLE3=Feel Good Funk
TTITLE4=Blue and Lonesome
TTITLE5=My Head Is a Bad Neighborhood
TTITLE6=Reverse Technology
EXTD=YEAR: 2005
EXTT0=
EXTT1=
EXTT2=
EXTT3=
EXTT4=
EXTT5=
EXTT6=
PLAYORDER=
